<?xml version="1.0" encoding="UTF-8" standalone="no"?>
<svg
   xmlns:dc="http://purl.org/dc/elements/1.1/"
   xmlns:cc="http://creativecommons.org/ns#"
   xmlns:rdf="http://www.w3.org/1999/02/22-rdf-syntax-ns#"
   xmlns:svg="http://www.w3.org/2000/svg"
   xmlns="http://www.w3.org/2000/svg"
   xmlns:sodipodi="http://sodipodi.sourceforge.net/DTD/sodipodi-0.dtd"
   xmlns:inkscape="http://www.inkscape.org/namespaces/inkscape"
   width="600mm"
   height="450mm"
   viewBox="0 0 600 450"
   version="1.1"
   id="svg8"
   inkscape:version="1.0.2-2 (e86c870879, 2021-01-15)"
   sodipodi:docname="laser.svg">
  <defs
     id="defs2">
    <rect
       x="39.811755"
       y="78.371567"
       width="81.877005"
       height="73.614188"
       id="rect1557" />
    <rect
       x="59.592438"
       y="21.78379"
       width="38.059036"
       height="90.640598"
       id="rect1423" />
    <rect
       x="-180.78042"
       y="152.73692"
       width="86.133607"
       height="109.67012"
       id="rect1393" />
    <rect
       x="37.952273"
       y="36.081386"
       width="152.34363"
       height="45.703089"
       id="rect839" />
  </defs>
  <sodipodi:namedview
     id="base"
     pagecolor="#ffffff"
     bordercolor="#666666"
     borderopacity="1.0"
     inkscape:pageopacity="0.0"
     inkscape:pageshadow="2"
     inkscape:zoom="1.0566917"
     inkscape:cx="674.0697"
     inkscape:cy="418.28421"
     inkscape:document-units="mm"
     inkscape:current-layer="layer1"
     inkscape:document-rotation="0"
     showgrid="false"
     inkscape:window-width="1920"
     inkscape:window-height="1017"
     inkscape:window-x="-8"
     inkscape:window-y="-8"
     inkscape:window-maximized="1"
     inkscape:snap-bbox="false"
     inkscape:snap-global="false"
     showguides="false" />
  <metadata
     id="metadata5">
    <rdf:RDF>
      <cc:Work
         rdf:about="">
        <dc:format>image/svg+xml</dc:format>
        <dc:type
           rdf:resource="http://purl.org/dc/dcmitype/StillImage" />
        <dc:title />
      </cc:Work>
    </rdf:RDF>
  </metadata>
  <g
     inkscape:label="Layer 1"
     inkscape:groupmode="layer"
     id="layer1">
    <path
       style="fill:#000000;stroke:none;stroke-width:0.114967"
       d="m 172.52148,99.532631 c -0.19425,-0.194243 -0.19248,-0.242656 0.0475,-1.303589 0.0644,-0.284544 0.11929,-0.750594 0.12204,-1.035664 l 0.005,-0.518308 2.58678,-2.584859 2.58677,-2.584859 v -1.613609 -1.61359 l 0.77892,-0.772949 0.77892,-0.772949 h 1.18309 c 1.31551,0 1.47348,-0.05284 2.17394,-0.727171 l 0.48862,-0.470382 v -3.743085 -3.743219 l 1.23778,-1.233942 1.23778,-1.233943 h 2.76872 2.76873 l 2.97854,-3.017904 c 2.06181,-2.089053 3.04596,-3.169051 3.19756,-3.508989 0.31796,-0.712965 0.8832,-0.811373 1.26996,-0.221101 0.25236,0.385147 0.13096,0.603252 -0.59385,1.066912 -0.34454,0.220395 -1.98564,1.744006 -3.6469,3.385803 l -3.02046,2.985085 h -2.7795 -2.7795 l -0.97453,0.935587 -0.97452,0.935587 v 3.80413 3.80413 l -0.83065,0.83622 -0.83063,0.83622 h -1.16321 c -0.9885,0 -1.23751,0.03928 -1.65781,0.261543 -0.78851,0.416973 -0.92119,0.784913 -0.92119,2.55448 v 1.497481 l -2.25376,2.240766 c -1.23957,1.232419 -2.40362,2.442537 -2.58677,2.689145 -0.38815,0.522604 -0.44314,1.222542 -0.15926,2.027148 0.15553,0.440807 0.15525,0.520763 -0.002,0.761747 -0.21134,0.322544 -0.75046,0.363286 -1.03549,0.07825 z"
       id="path1032" />
    <path
       style="fill:#000000;stroke:none;stroke-width:0.114967"
       d="m 170.33811,99.492491 c -0.18403,-0.203348 -0.19202,-0.282847 -0.0664,-0.661063 0.0785,-0.236456 0.1714,-1.057995 0.20641,-1.825654 l 0.0636,-1.395744 2.22684,-2.224635 2.22684,-2.224637 v -2.074125 -2.074124 l 0.66106,-0.651136 c 0.73248,-0.721479 1.07679,-0.893524 1.78948,-0.89416 0.55527,-4.78e-4 1.12167,-0.304783 1.42337,-0.764671 0.17381,-0.264957 0.21373,-0.621366 0.24623,-2.199008 l 0.0388,-1.882801 -0.75734,-0.784464 -0.75733,-0.784466 v -1.329406 c 0,-1.010479 -0.0466,-1.427103 -0.1942,-1.736638 -0.18654,-0.391177 -0.18493,-0.419659 0.0409,-0.722451 0.29278,-0.392522 0.54087,-0.4465 0.91761,-0.19965 0.2563,0.167934 0.2834,0.245029 0.21552,0.6131 -0.0427,0.231555 -0.1038,1.054852 -0.13575,1.829549 l -0.0581,1.408537 0.69918,0.728131 0.69918,0.72813 v 2.180033 2.180032 l -0.43112,0.399442 c -1.02022,0.945224 -1.03361,0.952629 -1.88858,1.043982 -0.70958,0.07582 -0.87259,0.138171 -1.20597,0.461291 -0.52687,0.510668 -0.61178,0.914639 -0.61252,2.91422 l -4.4e-4,1.725621 -2.25184,2.24077 -2.25185,2.24076 0.0571,1.379619 c 0.0314,0.758785 0.12384,1.545161 0.20545,1.747495 0.13084,0.324366 0.12316,0.395768 -0.0649,0.603581 -0.27187,0.300407 -0.7713,0.302586 -1.04102,0.0044 z"
       id="path1030" />
    <path
       style="fill:#000000;stroke:none;stroke-width:0.114967"
       d="m 168.14116,99.431501 c -0.16587,-0.253158 -0.17067,-0.333685 -0.036,-0.603582 0.11057,-0.221539 0.16789,-0.995066 0.19857,-2.679475 l 0.0431,-2.368028 1.77219,-1.769425 1.77219,-1.769418 V 87.19173 84.141896 l 1.38898,-1.377816 1.38898,-1.377816 -0.0444,-1.351419 c -0.0275,-0.838396 -0.0966,-1.403584 -0.18182,-1.488832 -0.20569,-0.205689 -0.16566,-0.720034 0.0728,-0.935867 0.29925,-0.270814 0.62672,-0.235718 0.94312,0.10107 0.2523,0.268557 0.26177,0.320257 0.12107,0.661065 -0.0851,0.206149 -0.17773,1.012172 -0.20935,1.821825 l -0.0567,1.452101 -1.30897,1.305251 -1.30896,1.30525 v 3.049868 3.049869 l -1.83949,1.836788 -1.83948,1.836789 0.007,1.495933 c 0.007,1.387178 0.10632,2.598667 0.28489,3.460579 0.14478,0.698849 -0.77256,1.048346 -1.16791,0.444959 z"
       id="path1028" />
    <path
       style="fill:#000000;stroke:none;stroke-width:0.114967"
       d="m 165.96491,99.443901 c -0.15551,-0.237346 -0.16027,-0.320051 -0.0314,-0.546094 0.11816,-0.207237 0.16464,-1.561744 0.20936,-6.099618 l 0.0575,-5.833225 1.58081,-1.583682 1.5808,-1.583683 4.4e-4,-4.539739 4.3e-4,-4.539739 0.80527,-0.840267 c 0.44289,-0.462146 0.92124,-1.082973 1.063,-1.379613 0.20584,-0.430716 0.32348,-0.546871 0.58408,-0.576706 0.77948,-0.08924 1.01468,0.769135 0.32483,1.185483 -0.21096,0.12732 -0.74125,0.531391 -1.17842,0.897936 l -0.7949,0.666452 v 4.61729 4.617292 l -1.684,1.697544 -1.68401,1.697545 0.0762,5.320272 c 0.0472,3.295549 0.12829,5.598663 0.21309,6.051793 0.12629,0.674834 0.12,0.743881 -0.0812,0.891 -0.34837,0.254736 -0.83286,0.198827 -1.04192,-0.120235 z"
       id="path1026" />
    <path
       style="fill:#000000;stroke:none;stroke-width:0.114967"
       d="m 163.8969,99.56237 c -0.20505,-0.149937 -0.21013,-0.208376 -0.0725,-0.833519 0.10324,-0.468767 0.16714,-2.307966 0.21112,-6.075759 l 0.0631,-5.403484 -0.6449,-0.628395 -0.6449,-0.628391 v -5.584221 -5.584187 l -0.57898,-0.570517 -0.57899,-0.570517 -1.59334,-0.05748 -1.59334,-0.05748 -1.90632,-1.868226 c -1.08945,-1.067686 -1.99837,-1.868226 -2.12115,-1.868226 -0.52281,0 -0.78945,-0.823434 -0.38512,-1.189344 0.43486,-0.393546 0.89647,-0.190724 1.23381,0.542112 0.11264,0.244729 0.92624,1.188902 1.80797,2.098162 l 1.60317,1.653199 h 1.56482 1.56484 l 0.83622,0.830639 0.83621,0.83064 v 5.58274 5.582742 l 0.6265,0.618714 0.62649,0.618713 0.0354,5.758072 c 0.0267,4.336017 0.0715,5.839986 0.18133,6.089756 0.2906,0.66068 -0.46025,1.161187 -1.07149,0.714235 z"
       id="path1024" />
    <path
       style="fill:#000000;stroke:none;stroke-width:0.114967"
       d="m 161.71553,99.49246 c -0.18533,-0.204775 -0.19243,-0.280185 -0.0623,-0.661062 0.10574,-0.309293 0.16201,-1.720192 0.20054,-5.028623 l 0.0535,-4.598712 -1.73369,-1.723076 -1.73368,-1.723078 v -4.636601 -4.636563 l -0.53929,-0.62465 -0.53927,-0.624648 h -2.97995 -2.97995 l -1.46268,-1.408355 c -1.361,-1.310449 -1.69354,-1.57092 -2.22134,-1.739888 -0.1116,-0.03573 -0.25643,-0.205728 -0.32184,-0.377775 -0.0962,-0.253105 -0.0773,-0.368874 0.0993,-0.606527 0.30991,-0.417064 0.74158,-0.43964 1.04443,-0.05463 0.1338,0.1701 0.24327,0.381121 0.24327,0.468933 0,0.08781 0.62814,0.805133 1.39587,1.594045 l 1.39586,1.434384 h 2.94147 2.94146 l 0.83623,0.830639 0.83621,0.830639 v 4.660511 4.660509 l 1.71488,1.712019 1.71488,1.712019 0.0474,4.782223 c 0.0368,3.711808 0.0827,4.864564 0.20512,5.150111 0.14136,0.329776 0.1356,0.392299 -0.0556,0.603581 -0.27187,0.300407 -0.7713,0.302586 -1.04102,0.0044 z"
       id="path1022" />
    <path
       style="fill:#000000;stroke:none;stroke-width:0.114967"
       d="m 159.52703,99.48806 c -0.19056,-0.210569 -0.19671,-0.274913 -0.0575,-0.603581 0.11282,-0.266497 0.16881,-1.191701 0.20317,-3.357045 l 0.0474,-2.989163 -1.78968,-1.780611 -1.78969,-1.780609 v -2.24721 -2.24719 l -0.60719,-0.599653 -0.6072,-0.599654 h -3.61847 -3.61847 l -4.13824,-4.151084 -4.13824,-4.151087 -3.92639,0.06916 c -2.335,0.04113 -4.16325,0.12383 -4.51079,0.204051 -0.51969,0.119961 -0.61004,0.111688 -0.81603,-0.07473 -0.33392,-0.302195 -0.30128,-0.812856 0.0674,-1.054421 0.26324,-0.172478 0.34235,-0.176996 0.66107,-0.03775 0.27907,0.12193 1.32545,0.167939 4.56646,0.200788 l 4.20444,0.04261 4.13013,4.131329 4.13013,4.131331 h 3.54619 3.54618 l 0.90942,0.821155 0.90942,0.821156 v 2.301875 2.301876 l 1.782,1.775161 1.782,1.775164 0.008,2.20107 c 0.008,2.065041 0.1162,3.76887 0.2837,4.453535 0.14787,0.604464 -0.71496,0.934547 -1.15934,0.443511 z"
       id="path1020" />
    <path
       style="fill:#000000;stroke:none;stroke-width:0.114967"
       d="m 157.35484,99.46314 c -0.14894,-0.227307 -0.14992,-0.319162 -0.008,-0.718544 0.11821,-0.331993 0.16445,-1.060062 0.16811,-2.64745 l 0.005,-2.189516 -1.64721,-1.633159 -1.6472,-1.633161 h -2.80839 -2.80841 l -4.13764,-4.138841 -4.13765,-4.138839 h -3.79741 -3.79741 l -0.85938,-0.870061 -0.85938,-0.870061 -2.70174,0.04338 c -1.77072,0.02842 -2.81605,0.0916 -3.03343,0.183308 -0.62645,0.264296 -1.19462,-0.399695 -0.82487,-0.963999 0.19944,-0.304387 0.82419,-0.395714 1.06432,-0.155584 0.0811,0.08109 1.13423,0.148856 2.94581,0.189561 l 2.81959,0.06336 0.83951,0.845147 0.83951,0.845148 h 3.79316 3.79316 l 4.14457,4.138839 4.14458,4.13884 h 2.75841 2.75841 l 1.92444,1.926942 1.92445,1.926946 0.009,1.090961 c 0.01,1.23156 0.17145,3.535631 0.28952,4.127596 0.0613,0.307421 0.0327,0.425658 -0.13197,0.546094 -0.33139,0.242324 -0.82669,0.190492 -1.02154,-0.106897 z"
       id="path1018" />
    <path
       style="fill:#000000;stroke:none;stroke-width:0.114967"
       d="m 174.7761,99.619427 c -0.49368,-0.493685 -0.12089,-1.271488 0.53144,-1.108801 1.76147,0.439303 2.38434,0.349215 3.12254,-0.45164 0.44029,-0.477654 0.47443,-0.561963 0.47697,-1.178106 0.005,-1.162043 0.14701,-1.516699 0.89992,-2.244411 0.43646,-0.421844 0.78175,-0.661326 0.95412,-0.661733 1.27654,-0.0031 2.1341,-1.01741 1.66133,-1.965102 -0.3351,-0.671727 -0.16461,-1.254589 0.36609,-1.251596 0.63149,0.0036 0.91158,0.463469 0.65551,1.076341 -0.094,0.225003 -0.17094,0.549625 -0.17094,0.721393 0,0.895803 -0.96673,1.921648 -1.94213,2.060889 -0.60721,0.08668 -1.17657,0.395524 -1.42327,0.772049 -0.0976,0.149023 -0.20611,0.714436 -0.25462,1.327354 l -0.0845,1.067752 -0.64829,0.700352 c -0.74565,0.805551 -1.14579,1.008567 -1.99546,1.012406 -0.55194,0.0025 -0.95834,0.07288 -1.6601,0.287538 -0.17134,0.05242 -0.32244,0.0013 -0.48861,-0.164685 z"
       id="path1016" />
    <path
       style="fill:#000000;stroke:none;stroke-width:0.114967"
       d="m 155.4176,99.712017 c -0.11315,-0.06585 -0.62116,-0.161604 -1.12891,-0.212786 -0.77075,-0.0777 -0.99182,-0.148622 -1.3389,-0.429534 -0.70347,-0.569371 -0.87533,-0.887537 -0.95625,-1.770327 -0.0677,-0.738683 -0.1127,-0.848674 -0.51614,-1.261832 l -0.44196,-0.452611 h -3.04481 -3.0448 l -2.03467,-2.02331 -2.03467,-2.023308 -6.8251,0.0529 c -5.16122,0.04 -6.92867,0.08905 -7.24992,0.20118 -0.36825,0.128533 -0.46394,0.122653 -0.71855,-0.04415 -0.55552,-0.363988 -0.26704,-1.221863 0.41088,-1.221863 0.15627,0 0.34876,0.06467 0.42777,0.14371 0.11093,0.11097 1.74924,0.152616 7.19135,0.182805 l 7.04769,0.0391 1.94157,1.9441 1.94158,1.944098 h 3.05184 3.05185 l 0.57755,0.603582 c 0.83758,0.875313 0.86369,0.922943 0.96839,1.767252 0.11349,0.915116 0.36818,1.307478 0.98647,1.519687 0.44,0.151027 0.76109,0.124074 1.91876,-0.16104 0.64439,-0.158705 1.02605,0.615185 0.54207,1.099163 -0.25642,0.256414 -0.41977,0.279729 -0.72309,0.103221 z"
       id="path1014" />
    <path
       style="fill:#000000;stroke:none;stroke-width:0.114967"
       d="m 180.42508,105.23655 c -0.37657,-0.1497 -0.426,-0.39242 -0.21375,-1.04961 0.10316,-0.3194 0.18756,-0.72224 0.18756,-0.89519 0,-0.65318 1.2938,-1.95775 1.94296,-1.95915 0.53985,-0.001 1.16069,-0.2359 1.56669,-0.59238 l 0.39925,-0.35053 v -2.834292 -2.834285 l 3.34037,-3.333323 3.34038,-3.333321 -0.0351,-3.219098 c -0.0263,-2.420189 -0.0731,-3.285954 -0.18853,-3.488483 -0.31106,-0.545928 0.13938,-1.153347 0.74293,-1.001864 0.40073,0.100575 0.56663,0.523252 0.39392,1.00361 -0.0881,0.245128 -0.15987,1.55996 -0.19964,3.659189 l -0.0621,3.276581 -3.32125,3.338565 -3.32126,3.338565 -0.002,2.81221 -0.003,2.812216 -0.67706,0.60259 c -0.73651,0.65552 -1.09045,0.83427 -1.65317,0.83494 -1.06882,0.001 -1.90416,1.30355 -1.40087,2.18396 0.20514,0.35884 0.21329,0.59389 0.0287,0.82866 -0.19272,0.24517 -0.5462,0.32711 -0.86481,0.20044 z"
       id="path1012" />
    <path
       style="fill:#000000;stroke:none;stroke-width:0.114967"
       d="m 149.84312,105.27995 c -0.0807,-0.0324 -0.25523,-0.27411 -0.38777,-0.53702 -0.3249,-0.64444 -7.10047,-7.433562 -7.41872,-7.433562 -0.30842,0 -0.61182,-0.35197 -0.61182,-0.709776 0,-0.345815 0.32416,-0.66983 0.67012,-0.66983 0.28336,0 0.70949,0.376224 0.70949,0.626401 0,0.09159 0.45269,0.64773 1.00597,1.23585 0.55329,0.588126 1.29052,1.373807 1.6383,1.745954 1.21568,1.300883 4.6258,4.439543 4.8235,4.439543 0.28026,0 0.57998,0.36678 0.57998,0.70977 0,0.49115 -0.51263,0.79225 -1.00905,0.59267 z"
       id="path1010" />
    <path
       style="fill:#000000;stroke:none;stroke-width:0.114967"
       d="m 180.35955,107.37081 c -0.44741,-0.44742 -0.0878,-1.29752 0.48861,-1.15516 0.90312,0.22303 1.49572,0.27811 3.05855,0.28432 l 1.72582,0.007 1.86693,-1.86951 1.86691,-1.86948 v -4.023197 -4.02318 l 4.25381,-4.252644 4.25381,-4.252642 v -1.95791 -1.957913 l 0.83622,-0.830638 0.83622,-0.83064 1.77929,-0.005 c 0.97862,-0.0028 1.98625,-0.05217 2.23917,-0.109822 0.25293,-0.05765 0.60396,-0.139377 0.78006,-0.181618 0.69502,-0.16671 1.07616,0.781662 0.47298,1.17688 -0.25936,0.169939 -0.34704,0.175888 -0.66106,0.04484 -0.23251,-0.09703 -1.08188,-0.169195 -2.37398,-0.201704 l -2.01193,-0.05062 -0.60359,0.534697 -0.60358,0.534697 v 2.032346 2.032345 l -4.2538,4.252642 -4.25381,4.25264 v 4.025622 4.025619 l -2.0993,2.097 -2.0993,2.09701 -1.89583,0.005 c -1.04271,0.003 -2.10277,0.0522 -2.3557,0.10982 -0.25293,0.0577 -0.59398,0.13748 -0.75789,0.17739 -0.20117,0.049 -0.35995,0.0106 -0.48861,-0.11804 z"
       id="path1008" />
    <path
       style="fill:#000000;stroke:none;stroke-width:0.114967"
       d="m 149.77137,107.40761 c -0.1202,-0.0698 -0.67074,-0.15268 -1.22342,-0.18419 l -1.00486,-0.0573 -2.39705,-2.39911 -2.39705,-2.39908 h -1.7929 -1.79291 l -0.76615,-0.7936 -0.76616,-0.7936 v -1.10707 c 0,-1.290889 -0.12653,-1.663055 -0.77801,-2.288366 l -0.45987,-0.441395 -7.80245,0.03951 c -6.22547,0.03156 -7.85689,0.07043 -8.07184,0.192489 -0.59162,0.335982 -1.23828,-0.230176 -0.96014,-0.840627 0.16092,-0.353159 0.62878,-0.482819 1.03681,-0.287331 0.23749,0.113773 2.10844,0.159707 8.20005,0.201326 l 7.89236,0.05392 0.8085,0.819234 0.8085,0.819235 0.0367,1.331518 c 0.0344,1.249967 0.0562,1.357057 0.35504,1.748457 0.42315,0.55419 0.8429,0.65506 2.72932,0.65584 l 1.55309,4.3e-4 2.41227,2.41433 2.41227,2.41433 0.57587,-0.002 c 0.31672,-0.001 0.78281,-0.0569 1.03573,-0.12297 0.25293,-0.0661 0.56334,-0.14552 0.68981,-0.17642 0.35718,-0.0873 0.67064,0.21513 0.67064,0.64703 0,0.57877 -0.49389,0.8522 -1.00415,0.55593 z"
       id="path1006" />
    <path
       style="fill:#000000;stroke:none;stroke-width:0.114967"
       d="m 180.35114,109.50672 c -0.2461,-0.27194 -0.20369,-0.91535 0.0717,-1.08776 0.14211,-0.089 0.34869,-0.0809 0.74729,0.0291 0.35629,0.0983 1.56622,0.172 3.42509,0.20863 l 2.8742,0.0566 1.72307,-1.73557 1.72308,-1.73558 h 2.03463 c 1.15487,0 2.17457,-0.0527 2.35828,-0.12202 0.17801,-0.0671 0.49178,-0.2842 0.69729,-0.48242 l 0.37365,-0.36041 v -3.34135 -3.341333 l 2.27166,-2.269535 2.27166,-2.269536 h 1.49429 c 1.77421,0 2.14315,-0.08863 2.72213,-0.653992 l 0.43768,-0.42738 v -2.582498 -2.582459 l 1.84442,-1.874483 c 1.26231,-1.2829 1.91699,-2.038557 2.07438,-2.394363 0.27075,-0.612088 0.6339,-0.768653 1.08989,-0.469881 0.23025,0.150865 0.2857,0.27073 0.25784,0.557328 -0.0288,0.296263 -0.12954,0.416853 -0.53416,0.639401 -0.27426,0.150852 -1.29604,1.0502 -2.27061,1.998552 l -1.77195,1.724274 v 2.604687 2.604687 l -0.77892,0.77295 -0.77892,0.77295 h -1.77795 -1.77795 l -2.04184,2.039479 -2.04185,2.039479 -0.001,3.277773 -0.001,3.27778 -0.70022,0.77604 -0.70021,0.77603 h -2.31762 -2.31762 l -1.72164,1.72453 -1.72164,1.72452 h -2.82274 c -2.13819,0 -2.9833,0.0418 -3.48482,0.17246 -0.80305,0.20917 -0.69191,0.21476 -0.92856,-0.0467 z"
       id="path1004" />
    <path
       style="fill:#000000;stroke:none;stroke-width:0.114967"
       d="m 149.87494,109.58172 c -0.13933,-0.0831 -0.89208,-0.15448 -1.9103,-0.18111 l -1.68037,-0.044 -2.05489,-2.05728 -2.05488,-2.05728 h -2.25431 -2.25432 l -0.64915,-0.68057 c -0.7184,-0.75315 -0.88043,-1.07281 -0.88043,-1.73692 0,-0.35742 -0.10023,-0.57109 -0.49538,-1.05597 l -0.49537,-0.60789 -2.04868,-0.0314 -2.04868,-0.0314 -0.6021,0.56944 c -0.67912,0.64229 -0.76876,0.66743 -2.64495,0.74188 -0.69555,0.0276 -1.43019,0.11758 -1.63253,0.19995 -0.32518,0.13238 -0.39525,0.12501 -0.60358,-0.0635 -0.27137,-0.24559 -0.3072,-0.72575 -0.0776,-1.03976 0.14859,-0.20321 0.19878,-0.20626 0.83352,-0.0507 0.3838,0.0941 1.23211,0.16552 1.96482,0.16552 h 1.28941 l 0.61117,-0.60359 0.61117,-0.60357 h 2.19009 2.19008 l 0.80621,0.83351 c 0.77497,0.80123 0.80889,0.85998 0.87565,1.51657 0.073,0.718 0.27731,1.09233 0.81557,1.49423 0.28981,0.21639 0.51063,0.24058 2.53528,0.27769 l 2.21783,0.0406 2.05512,2.05752 2.05513,2.05752 0.92094,-0.002 c 0.50652,-0.001 1.25723,-0.0586 1.66823,-0.12745 1.264,-0.21166 1.41184,-0.19705 1.58294,0.15631 0.11974,0.2473 0.12285,0.36936 0.0146,0.57484 -0.23605,0.44819 -0.45747,0.52349 -0.85027,0.28918 z"
       id="path1002" />
    <path
       style="fill:#000000;stroke:none;stroke-width:0.114967"
       d="m 180.31266,111.6654 c -0.20224,-0.20549 -0.17889,-0.84745 0.0374,-1.02692 0.14559,-0.12083 0.31027,-0.12359 0.84044,-0.0141 0.44217,0.0913 2.1347,0.13618 5.13807,0.13618 h 4.4787 l 1.31838,-1.32213 1.31837,-1.32214 h 5.01349 5.0135 l 0.70803,-0.73735 0.70803,-0.73733 v -2.96894 -2.96894 l -0.79113,-0.760367 c -0.49979,-0.480371 -0.92362,-0.786871 -1.15094,-0.832335 -0.67234,-0.13447 -0.78754,-1.112703 -0.15918,-1.351602 0.24583,-0.09347 0.36492,-0.07327 0.60037,0.101825 0.16155,0.120129 0.311,0.335375 0.33213,0.47833 0.0211,0.142948 0.44794,0.686487 0.94848,1.207863 l 0.91008,0.947946 v 3.20941 3.2094 l -0.95089,0.94595 -0.95088,0.94595 h -5.05798 -5.05798 l -1.37136,1.37495 -1.37134,1.37493 -4.77763,0.048 c -2.6277,0.0264 -4.9587,0.0839 -5.18002,0.1277 -0.26751,0.053 -0.45055,0.0307 -0.54609,-0.0663 z"
       id="path1000" />
    <path
       style="fill:#000000;stroke:none;stroke-width:0.114967"
       d="m 149.64501,111.6831 c -0.12646,-0.0558 -1.28966,-0.10514 -2.58488,-0.10959 l -2.35494,-0.008 -1.01038,-1.05261 -1.01039,-1.05262 -1.86571,0.0707 c -1.02614,0.0389 -2.03476,0.12993 -2.24138,0.20231 -0.50038,0.17528 -0.87653,0.0652 -1.04568,-0.30607 -0.28427,-0.6239 0.41906,-1.14501 1.08014,-0.80029 0.26879,0.14015 0.7566,0.17807 2.29821,0.17862 l 1.95698,6.3e-4 0.97216,0.97723 0.97214,0.97723 h 2.21402 c 1.37754,0 2.41192,-0.0529 2.73782,-0.1401 0.36112,-0.0966 0.58134,-0.1038 0.70907,-0.0232 0.51306,0.32363 0.33785,1.12348 -0.25496,1.16392 -0.18826,0.0128 -0.44576,-0.0224 -0.57222,-0.0781 z"
       id="path998" />
    <path
       style="fill:#000000;stroke:none;stroke-width:0.114967"
       d="m 180.30691,113.84181 c -0.21531,-0.21532 -0.16581,-0.83591 0.0848,-1.06268 0.19866,-0.17979 0.27009,-0.18482 0.66106,-0.0466 0.34815,0.1231 1.79076,0.155 7.01057,0.155 h 6.57221 l 0.38333,-0.28742 0.38333,-0.28742 6.89806,-0.0344 6.89807,-0.0344 0.60358,-0.59403 0.60358,-0.59402 -0.008,-2.82065 c -0.008,-2.54911 -0.0477,-3.15763 -0.28499,-4.32543 -0.13381,-0.65845 0.69189,-1.0196 1.15674,-0.50595 0.18483,0.20423 0.19227,0.28122 0.0639,0.66107 -0.0978,0.2894 -0.165,1.5439 -0.20552,3.83841 l -0.0602,3.4085 -0.81936,0.81173 -0.81936,0.81171 -6.84059,0.0336 -6.84058,0.0336 -0.45987,0.2841 -0.45987,0.28412 -6.61064,0.0821 c -4.10322,0.051 -6.76299,0.12852 -7.01228,0.2045 -0.51868,0.15807 -0.7275,0.15445 -0.8975,-0.0155 z"
       id="path996" />
    <path
       style="fill:#000000;stroke:none;stroke-width:0.114967"
       d="m 120.80254,115.4149 c -0.41108,-0.41108 -0.1529,-1.06533 0.49909,-1.26474 0.15599,-0.0477 1.14323,-0.93333 2.19388,-1.96805 l 1.91028,-1.88132 h 4.91012 4.91013 l 1.28194,1.32953 1.28192,1.32955 5.87007,-0.0389 c 4.37199,-0.029 5.95463,-0.0757 6.20142,-0.18279 0.42152,-0.18298 0.69035,-0.0967 0.86016,0.27597 0.10438,0.22909 0.10119,0.36274 -0.0144,0.60137 -0.12361,0.25523 -0.21573,0.30229 -0.54789,0.27987 -3.01076,-0.2032 -4.377,-0.24577 -8.10401,-0.25253 l -4.37066,-0.008 -1.31838,-1.32214 -1.31837,-1.32214 h -4.73137 -4.73136 l -1.5707,1.62296 c -0.86389,0.89262 -1.7632,1.9144 -1.99846,2.27062 -0.46425,0.70294 -0.86565,0.8785 -1.21343,0.53072 z"
       id="path994" />
    <path
       style="fill:#000000;stroke:none;stroke-width:0.114967"
       d="m 193.9076,117.42876 -1.60647,-1.60955 -4.71522,0.008 c -4.33242,0.008 -5.93295,0.0743 -6.74464,0.28143 -0.7061,0.18018 -1.0618,-0.84413 -0.41804,-1.20384 0.26847,-0.15002 0.36425,-0.15243 0.6898,-0.0173 0.29466,0.1223 1.59846,0.16913 5.91097,0.21227 l 5.53293,0.0554 1.59354,1.59659 1.59353,1.59659 h 4.96313 4.96313 l 0.76963,-0.83126 c 0.4233,-0.4572 0.85495,-1.00868 0.95925,-1.22552 0.23748,-0.49376 0.47209,-0.6425 0.85988,-0.54517 0.33902,0.0851 0.49178,0.46854 0.37385,0.93841 -0.0522,0.20796 -0.1738,0.31107 -0.42647,0.3616 -0.22943,0.0459 -0.70768,0.40777 -1.36283,1.03122 l -1.00935,0.96054 h -5.16008 -5.16007 z"
       id="path992" />
    <path
       style="fill:#000000;stroke:none;stroke-width:0.114967"
       d="m 208.91089,122.47002 c -0.22797,-0.0616 -4.5957,-0.13809 -10.07656,-0.17642 l -9.67418,-0.0677 -2.10886,-2.11117 -2.10885,-2.11117 h -1.5637 c -1.05628,0 -1.74683,0.0556 -2.12806,0.17133 -0.52371,0.15899 -0.58508,0.15608 -0.85179,-0.0403 -0.62072,-0.45699 -0.29714,-1.24533 0.45754,-1.1147 1.33719,0.23146 1.79991,0.27539 2.99265,0.28414 l 1.3233,0.01 2.12458,2.12691 2.12457,2.1269 9.02613,-0.006 c 8.18474,-0.006 10.26439,-0.059 10.99219,-0.28242 0.3308,-0.10153 0.62072,0.21432 0.62072,0.67623 0,0.62651 -0.27716,0.75062 -1.14968,0.51482 z"
       id="path990" />
    <path
       style="fill:#000000;stroke:none;stroke-width:0.114967"
       d="m 122.16661,126.28007 c -0.18551,-0.20499 -0.19248,-0.27982 -0.0616,-0.66107 0.10081,-0.29367 0.1645,-1.46827 0.20098,-3.70649 l 0.0534,-3.27659 0.93633,-0.94848 0.93634,-0.94848 h 6.05525 6.05525 l 0.70183,-0.79164 0.70184,-0.79163 5.91649,-0.0435 c 4.49611,-0.033 5.95062,-0.0776 6.05862,-0.1856 0.20978,-0.20978 0.72268,-0.17263 0.94057,0.0681 0.42688,0.47171 6.2e-4,1.26664 -0.59702,1.11407 -0.81933,-0.20908 -2.43986,-0.27392 -7.03361,-0.28142 l -5.00418,-0.008 -0.79861,0.80477 -0.7986,0.80478 h -5.99305 -5.99305 l -0.71842,0.6547 -0.71843,0.6547 0.0538,3.22546 c 0.037,2.21752 0.10036,3.35981 0.20288,3.65537 0.13259,0.38222 0.12592,0.45557 -0.0601,0.66107 -0.11506,0.12713 -0.34836,0.23115 -0.51845,0.23115 -0.17011,0 -0.40341,-0.10402 -0.51846,-0.23115 z"
       id="path988" />
    <path
       style="fill:none;stroke:#000000;stroke-width:0.02;stroke-miterlimit:4;stroke-dasharray:none;stroke-opacity:1"
       d="m 176.16898,125.16575 0.43598,-0.42572 v -10.34699 -10.34708 l -0.36747,-0.37911 -0.36745,-0.37912 h -10.4053 -10.4053 l -0.37912,0.36745 -0.37912,0.36746 v 10.36869 10.36866 l 0.46021,0.41576 0.4602,0.41577 h 10.25569 10.2557 z"
       id="path978" />
    <path
       style="fill:none;fill-opacity:1;stroke:#000000;stroke-width:1;stroke-miterlimit:4;stroke-dasharray:none;stroke-opacity:1"
       d="m 153.64283,126.19505 -0.7103,-0.77603 -0.006,-11.03999 -0.006,-11.04003 0.77892,-0.77295 0.77892,-0.77296 h 10.9912 10.99121 l 0.75995,0.77604 0.75996,0.77604 10e-4,11.06148 0.001,11.06144 -0.70298,0.7515 -0.70299,0.7515 h -11.11274 -11.11273 l -0.71029,-0.77604 z"
       id="path976" />
    <path
       style="fill:#000000;stroke:none;stroke-width:0.114967"
       d="m 195.07366,128.92953 c -0.9082,-0.94212 -0.99361,-1.06995 -0.99361,-1.4871 0,-0.67534 -0.17694,-1.03667 -0.83602,-1.70724 l -0.59322,-0.60359 h -1.95938 -1.95938 l -2.46981,-2.47181 -2.4698,-2.4718 h -1.0628 c -0.58454,0 -1.29851,0.063 -1.58661,0.14009 -0.54683,0.14626 -0.78837,0.0809 -1.01206,-0.27369 -0.18554,-0.29413 0.005,-0.74458 0.38074,-0.90023 0.29121,-0.12062 0.39047,-0.11385 0.62975,0.043 0.21528,0.14107 0.57054,0.18613 1.46749,0.18613 h 1.18345 l 2.52733,2.52929 2.52733,2.5293 h 2.02223 2.02222 l 0.82123,0.84692 c 0.88038,0.90795 1.05712,1.22463 1.05712,1.8942 0,0.48953 0.16815,0.77638 0.90352,1.54143 l 0.52493,0.54609 h 3.85179 3.8518 l 0.5456,-0.5374 c 0.59846,-0.58946 0.98911,-0.7017 2.50202,-0.71885 0.40721,-0.004 1.03709,-0.0697 1.39974,-0.14459 0.81802,-0.16896 1.05115,-0.0348 0.99858,0.57458 -0.0475,0.55095 -0.29406,0.68223 -0.95115,0.50648 -0.28809,-0.077 -1.06886,-0.1401 -1.73503,-0.1401 -1.36002,0 -1.64748,0.0963 -2.21393,0.74142 l -0.35846,0.40827 h -4.01099 -4.011 z"
       id="path974" />
    <path
       style="fill:#000000;stroke:none;stroke-width:0.114967"
       d="m 124.96759,130.48657 c -0.0951,-0.20871 -0.0901,-0.3743 0.0198,-0.66107 0.10257,-0.26756 0.16157,-1.41969 0.19623,-3.83164 l 0.0495,-3.44903 0.82124,-0.83352 0.82124,-0.83352 h 4.8809 4.8809 l 1.79461,-1.782 1.79462,-1.782 3.27208,-0.0115 c 3.21441,-0.0113 5.77759,-0.1214 6.52445,-0.28038 0.65186,-0.13875 1.06959,0.49368 0.67894,1.02792 -0.17057,0.23326 -0.48567,0.25454 -1.22957,0.083 -0.30599,-0.0706 -2.27932,-0.12133 -4.83004,-0.12428 l -4.31269,-0.005 -1.77921,1.782 -1.77922,1.782 h -4.83397 -4.83396 l -0.59966,0.60719 -0.59965,0.60719 0.008,2.92807 c 0.008,2.66098 0.0613,3.49339 0.28187,4.37576 0.0995,0.39805 -0.19161,0.67921 -0.70332,0.67921 -0.30811,0 -0.42496,-0.0621 -0.52351,-0.27845 z"
       id="path972" />
    <path
       style="fill:#000000;stroke:none;stroke-width:0.114967"
       d="m 210.23302,135.22801 c -0.20921,-0.0704 -3.12648,-0.13836 -7.41541,-0.17289 l -7.07053,-0.0569 -1.62379,-1.61201 -1.62378,-1.61201 -0.0533,-1.19881 c -0.0488,-1.09804 -0.0818,-1.23937 -0.39241,-1.68129 -0.61683,-0.87763 -0.92113,-1.00324 -2.43052,-1.00324 h -1.31868 l -2.57859,-2.52759 c -1.41823,-1.39017 -2.81222,-2.66451 -3.09775,-2.83184 l -0.51916,-0.30425 -0.74062,0.20048 c -0.68743,0.18609 -0.76121,0.18698 -1.02754,0.0125 -0.35164,-0.2304 -0.37688,-0.66758 -0.057,-0.98747 0.26964,-0.26964 0.65674,-0.29111 0.97046,-0.0539 0.12274,0.0928 0.41685,0.1688 0.65358,0.1688 0.23672,0 0.57309,0.0542 0.74747,0.12055 0.17438,0.0663 1.54022,1.33381 3.03519,2.8167 l 2.71813,2.69617 1.42729,0.001 1.42729,0.001 0.94849,0.93466 0.94848,0.93466 v 1.27895 1.27897 l 1.3526,1.34907 1.3526,1.34907 6.37898,-0.008 c 5.82975,-0.007 7.56466,-0.0653 8.40152,-0.2801 0.39627,-0.10171 0.67921,0.18775 0.67921,0.69483 0,0.57379 -0.36319,0.73754 -1.09219,0.49243 z"
       id="path970" />
    <path
       style="fill:#000000;stroke:none;stroke-width:0.114967"
       d="m 148.42722,138.11233 c -0.16617,-0.16617 -0.2171,-0.31727 -0.16469,-0.48861 0.23816,-0.77858 0.28506,-1.19429 0.28754,-2.54854 l 0.002,-1.49571 2.15676,-2.15452 2.15675,-2.15451 h 1.06805 c 0.74029,0 1.17392,-0.0547 1.413,-0.17837 0.41435,-0.21427 0.73449,-0.13326 0.98514,0.24929 0.3893,0.59415 -0.22276,1.11517 -1.01923,0.86763 -0.20886,-0.0649 -0.81191,-0.1533 -1.3401,-0.1964 l -0.96035,-0.0784 -1.8851,1.8851 -1.8851,1.88511 0.006,1.03084 c 0.006,0.95803 0.11238,2.03194 0.28671,2.88054 0.13638,0.66392 -0.60734,0.9972 -1.10801,0.49652 z"
       id="path968" />
    <path
       style="fill:#000000;stroke:none;stroke-width:0.114967"
       d="m 192.7459,142.14116 c -0.13308,-0.0492 -0.38854,-0.33971 -0.5677,-0.6455 -0.18489,-0.31557 -1.79092,-2.03496 -3.71413,-3.97628 l -3.38838,-3.42029 h -2.78509 -2.78509 l -0.68831,-0.7358 c -0.63188,-0.67549 -0.69507,-0.79094 -0.77085,-1.40836 -0.0976,-0.79461 -0.38954,-1.31944 -0.91467,-1.64398 -0.42291,-0.26138 -1.15773,-0.30998 -1.60503,-0.10617 -0.59925,0.27303 -1.19464,-0.20841 -0.97891,-0.79156 0.15113,-0.40852 0.57486,-0.54672 1.00085,-0.32643 0.19533,0.10101 0.51802,0.18365 0.71711,0.18365 0.54644,0 1.06576,0.29742 1.71147,0.98016 0.65106,0.6884 0.81217,1.01684 0.81217,1.65573 0,0.33308 0.10217,0.56279 0.43113,0.9693 l 0.43113,0.53277 2.81798,4.3e-4 2.81797,4.4e-4 1.95318,1.96491 c 2.92619,2.94375 5.36879,5.21511 5.87299,5.46126 0.24694,0.12055 0.46649,0.31381 0.4879,0.42947 0.10894,0.58858 -0.35344,1.06205 -0.85572,0.87623 z"
       id="path966" />
    <path
       style="fill:#000000;stroke:none;stroke-width:0.114967"
       d="m 157.43751,143.17923 c -0.26654,-0.10725 -0.44805,-0.56666 -0.3376,-0.85449 0.0354,-0.0921 0.28529,-0.28027 0.55541,-0.41807 0.27012,-0.1378 0.76347,-0.48936 1.09634,-0.78123 l 0.60522,-0.53067 0.001,-1.55403 0.001,-1.55402 1.27376,-1.26269 1.27376,-1.26268 -0.0471,-2.29936 c -0.032,-1.56058 -0.095,-2.39821 -0.19617,-2.60703 -0.4142,-0.85511 0.59372,-1.49647 1.11102,-0.70698 0.15457,0.23591 0.15896,0.32278 0.0297,0.58824 -0.10586,0.21739 -0.16664,1.06366 -0.20125,2.80213 l -0.0496,2.49067 -1.25215,1.17076 -1.25216,1.17075 v 1.55984 1.55984 l -0.68949,0.71802 c -0.37921,0.39491 -0.78805,0.948 -0.90853,1.22907 -0.27017,0.63027 -0.4954,0.75063 -1.01406,0.54193 z"
       id="path964" />
    <path
       style="fill:#000000;stroke:none;stroke-width:0.114967"
       d="m 138.14134,143.12973 c -0.26949,-0.4113 -0.12248,-0.69306 0.61714,-1.18279 0.35916,-0.23781 2.14073,-1.90099 3.95904,-3.69593 l 3.306,-3.26355 v -2.77586 -2.77587 l 0.66107,-0.64439 c 0.75299,-0.73401 1.02823,-0.90047 1.48881,-0.90047 0.46116,0 1.08241,-0.36087 1.38538,-0.80472 0.21478,-0.31464 0.25868,-0.53405 0.25868,-1.29271 0,-0.64057 -0.0564,-1.00919 -0.18859,-1.233 -0.3552,-0.6013 0.0778,-1.26377 0.72056,-1.10244 0.40043,0.10051 0.56654,0.52311 0.39447,1.00361 -0.0754,0.21044 -0.16644,0.8741 -0.20241,1.47481 l -0.0654,1.09219 -0.70319,0.7092 c -0.38676,0.39006 -0.83243,0.7363 -0.99038,0.76941 -0.15795,0.0331 -0.47357,0.09 -0.70138,0.12635 -0.25808,0.0412 -0.59392,0.23205 -0.891,0.50631 l -0.4768,0.44018 v 2.80664 2.80663 l -2.48276,2.4708 c -3.13133,3.11624 -4.87518,5.0085 -4.87518,5.2901 0,0.492 -0.91957,0.62492 -1.21405,0.1755 z"
       id="path962" />
    <path
       style="fill:#000000;stroke:none;stroke-width:0.114967"
       d="m 121.31143,144.96995 c -0.33282,-0.35427 -0.25344,-0.76254 0.19211,-0.98803 0.54477,-0.27571 2.31945,-1.94783 7.24213,-6.82361 l 4.74637,-4.70113 0.001,-3.57655 0.001,-3.57654 0.83452,-0.891 0.8345,-0.891 h 2.072 2.072 l 2.07019,-2.06942 2.07019,-2.06943 2.98366,-6.2e-4 c 2.41623,-4.4e-4 3.04602,-0.0333 3.31153,-0.17171 0.78549,-0.40967 1.51621,0.45828 0.87464,1.03889 -0.21164,0.19153 -0.29955,0.1989 -0.89793,0.0753 -0.4055,-0.0838 -1.73361,-0.13702 -3.41686,-0.13702 h -2.75354 l -2.00948,2.01193 -2.00947,2.01195 h -2.04879 -2.04879 l -0.62544,0.59151 -0.62544,0.59152 v 3.62296 3.62296 l -5.79183,5.82536 c -3.18551,3.20395 -5.83013,5.95069 -5.87696,6.10388 -0.21401,0.70022 -0.75144,0.87905 -1.20163,0.39985 z"
       id="path960" />
    <path
       style="fill:#000000;stroke:none;stroke-width:0.114967"
       d="m 125.77173,149.22497 c -0.0959,-0.21045 -0.10448,-0.40033 -0.0279,-0.6158 0.0987,-0.27756 0.16045,-0.30764 0.56666,-0.27588 0.25075,0.0196 1.434,0.0616 2.62945,0.0934 l 2.17353,0.0577 0.61443,-0.60681 0.61444,-0.60681 v -2.06963 -2.06965 l 4.08136,-4.08717 4.08135,-4.08716 v -4.42522 -4.42523 l 2.27167,-2.26954 2.27166,-2.26953 h 2.02643 c 1.56405,0 2.1596,-0.043 2.61013,-0.18852 0.54245,-0.1752 0.60432,-0.17501 0.87545,0.002 0.36326,0.23801 0.39084,0.75037 0.0567,1.05277 -0.2125,0.19231 -0.28704,0.19848 -0.77604,0.0643 -0.29753,-0.0817 -1.43815,-0.17703 -2.53472,-0.21191 l -1.99377,-0.0634 -2.05884,2.05647 -2.05885,2.05646 v 4.38187 4.38188 l -4.02387,4.00827 -4.02388,4.00827 v 2.07552 2.07552 l -1.00597,0.9966 -1.00596,0.9966 -2.18439,0.0551 c -1.20142,0.0303 -2.377,0.0907 -2.61242,0.13415 -0.3867,0.0714 -0.44141,0.0497 -0.56666,-0.22523 z"
       id="path958" />
    <path
       style="fill:#000000;stroke:none;stroke-width:0.114967"
       d="m 208.48024,151.89039 c -0.0626,-0.079 -0.20213,-0.33333 -0.30997,-0.5651 -0.10784,-0.23175 -0.89068,-1.14522 -1.73966,-2.0299 l -1.54359,-1.60853 v -2.03124 -2.03124 l -0.64982,-0.68127 -0.64983,-0.68128 h -2.7135 -2.7135 l -4.77013,-4.77115 -4.77012,-4.77116 -1.61006,-3.6e-4 -1.61007,-3.4e-4 -0.72104,-0.66067 -0.72104,-0.66067 0.003,-1.84202 0.002,-1.84203 -0.94848,-0.92569 c -1.41474,-1.38084 -2.15597,-2.00101 -2.39149,-2.00101 -0.25423,0 -0.56893,-0.41764 -0.56893,-0.75505 0,-0.31974 0.34642,-0.62456 0.70979,-0.62456 0.30312,0 0.66983,0.31318 0.66983,0.57205 0,0.21128 0.6627,1.00094 2.02762,2.41606 l 1.16535,1.20822 0.0424,1.74563 c 0.0377,1.55131 0.0691,1.78168 0.28251,2.06942 0.34878,0.47036 0.85332,0.59743 2.40113,0.60472 l 1.3778,0.006 4.77616,4.77116 4.77616,4.77116 h 2.7011 2.7011 l 0.94594,0.95089 0.94595,0.95088 v 2.08635 2.08636 l 1.35087,1.26473 c 1.52718,1.42981 1.78456,1.6418 2.27061,1.87025 0.65274,0.3068 0.43288,1.25261 -0.29116,1.25261 -0.17216,0 -0.36426,-0.0647 -0.42691,-0.14371 z"
       id="path956" />
    <path
       style="fill:#000000;stroke:none;stroke-width:0.114967"
       d="m 198.90155,153.92245 c -0.12082,-0.14558 -0.12358,-0.31026 -0.0141,-0.84043 0.0749,-0.36266 0.1362,-1.45992 0.1362,-2.43838 v -1.77901 l -0.60721,-0.59965 -0.60719,-0.59966 h -2.06215 -2.06215 l -4.14457,-4.13884 -4.14457,-4.13884 h -4.42545 -4.42545 l -1.9117,-1.92571 -1.91171,-1.92571 -0.0618,-2.62234 c -0.0403,-1.70892 -0.10751,-2.67742 -0.19303,-2.78046 -0.0722,-0.087 -0.11476,-0.32845 -0.0946,-0.53665 0.0649,-0.67122 0.89429,-0.82275 1.20117,-0.21945 0.099,0.1947 0.0922,0.38037 -0.0288,0.7823 -0.11207,0.37238 -0.15861,1.20439 -0.15861,2.83545 v 2.30843 l 1.69434,1.69717 1.69435,1.69716 h 4.37081 4.37082 l 4.08014,4.08137 4.08014,4.08135 h 2.05449 2.05449 l 0.93393,0.891 c 0.51366,0.49005 0.97254,0.94274 1.01974,1.00597 0.0472,0.0632 0.0866,0.91375 0.0876,1.89004 6.3e-4,0.9763 0.0631,2.0718 0.13795,2.43446 0.16281,0.78823 0.0398,1.0215 -0.53858,1.0215 -0.20582,0 -0.44185,-0.0815 -0.5245,-0.18107 z"
       id="path954" />
    <path
       style="fill:#000000;stroke:none;stroke-width:0.114967"
       d="m 152.0989,153.82265 c -0.10395,-0.22814 -0.10085,-0.36483 0.0138,-0.61016 0.17007,-0.36377 0.30146,-2.27355 0.18762,-2.72712 -0.0421,-0.16785 -0.38839,-0.64033 -0.76946,-1.04996 l -0.69287,-0.74478 0.0358,-2.11761 0.0358,-2.11761 0.50588,-0.51517 c 0.58104,-0.5917 0.84533,-0.71367 1.77065,-0.81712 0.5618,-0.0628 0.75536,-0.15019 1.22744,-0.55416 l 0.56046,-0.47961 0.008,-2.10457 0.008,-2.10458 2.36836,-2.3513 2.36836,-2.35132 -0.0403,-1.47616 c -0.0274,-1.00573 -0.0889,-1.53471 -0.1928,-1.65983 -0.2228,-0.26824 -0.12252,-0.65702 0.23876,-0.92576 l 0.31616,-0.23518 0.31616,0.23794 c 0.34457,0.25931 0.35964,0.40507 0.15846,1.53148 -0.0621,0.34777 -0.11671,1.09842 -0.12132,1.6681 l -0.008,1.03579 -2.29937,2.2972 -2.29935,2.2972 v 2.07981 2.07981 l -0.8404,0.8149 c -0.8664,0.8401 -0.90413,0.85753 -2.14876,0.99295 -0.3914,0.0426 -0.59433,0.14244 -0.83352,0.41011 l -0.31615,0.35382 v 1.98618 1.98619 l 0.52657,0.51255 c 0.28962,0.2819 0.59331,0.64188 0.67488,0.79997 0.0816,0.15808 0.17677,0.88237 0.21156,1.60955 0.0348,0.72717 0.13093,1.49158 0.21368,1.6987 0.20839,0.52161 0.0368,0.7631 -0.57442,0.80843 -0.41602,0.0309 -0.49334,-0.002 -0.61033,-0.25868 z"
       id="path952" />
    <path
       style="fill:#000000;stroke:none;stroke-width:0.114967"
       d="m 172.14663,153.84175 -0.71522,-0.72163 v -4.94213 -4.94211 l -1.54358,-1.5404 -1.54357,-1.54039 -0.0373,-4.96489 c -0.0293,-3.91305 -0.0696,-5.00382 -0.18977,-5.14856 -0.2228,-0.26825 -0.12253,-0.65703 0.23875,-0.92578 l 0.31617,-0.23517 0.31616,0.23794 c 0.25051,0.18853 0.31025,0.31851 0.28773,0.62602 -0.0157,0.21346 -0.0764,0.98306 -0.13499,1.71022 -0.0586,0.72718 -0.11049,2.92666 -0.11528,4.88773 l -0.009,3.5656 1.55206,1.54887 1.55207,1.54887 v 4.95002 4.95001 l 0.49297,0.48381 0.49296,0.48381 3.7321,-0.001 3.7321,-0.001 0.57484,-0.64625 c 0.31616,-0.35543 0.70508,-0.88507 0.86425,-1.17697 0.32893,-0.60319 0.7696,-0.75792 1.15785,-0.40655 0.43244,0.39134 0.25084,0.9136 -0.41726,1.19998 -0.26888,0.11525 -0.84973,0.54996 -1.29077,0.96602 l -0.8019,0.75647 h -3.89824 -3.89825 l -0.71523,-0.72164 z"
       id="path950" />
    <path
       style="fill:#000000;stroke:none;stroke-width:0.114967"
       d="m 146.59122,156.45176 c -0.12109,-0.1459 -0.1236,-0.31022 -0.0129,-0.84607 0.0893,-0.43225 0.16372,-2.72907 0.21269,-6.56255 l 0.0753,-5.89755 0.7422,-0.78678 c 0.72661,-0.77024 0.75459,-0.78689 1.33186,-0.79267 0.32431,-0.003 0.94553,-0.0454 1.38048,-0.0937 0.74645,-0.0829 0.81903,-0.11766 1.29339,-0.61973 l 0.50256,-0.5319 v -1.40955 -1.40955 l 2.70174,-2.71034 2.70175,-2.71034 v -0.83613 c 0,-0.5307 -0.0652,-0.96212 -0.17838,-1.18106 -0.21109,-0.40821 -0.1339,-0.73408 0.23046,-0.97281 0.21591,-0.14147 0.32054,-0.14785 0.56888,-0.0347 0.36733,0.16737 0.47724,0.5303 0.31543,1.04161 -0.0661,0.20886 -0.15474,0.80017 -0.19698,1.31403 l -0.0768,0.93427 -2.63065,2.62879 -2.63065,2.62878 v 1.44074 1.44073 l -0.89355,0.8883 -0.89355,0.8883 h -1.1241 c -1.24817,0 -1.52147,0.0926 -2.12434,0.72009 l -0.37935,0.39481 0.035,6.08194 c 0.025,4.33863 0.0737,6.16857 0.17,6.38415 0.10874,0.2435 0.10178,0.34959 -0.0359,0.5461 -0.2068,0.29524 -0.86038,0.33309 -1.08468,0.0628 z"
       id="path948" />
    <path
       style="fill:#000000;stroke:none;stroke-width:0.114967"
       d="m 163.18294,157.63879 c -0.0626,-0.079 -0.20381,-0.33686 -0.31368,-0.57292 -0.10988,-0.23606 -0.63405,-0.89053 -1.16482,-1.45436 l -0.96504,-1.02516 v -4.63415 -4.63415 l 1.66703,-1.68043 1.66704,-1.68044 -0.0111,-3.95777 c -0.006,-2.17676 -0.058,-4.8114 -0.11533,-5.85473 -0.0574,-1.04333 -0.11702,-2.12774 -0.13263,-2.4098 -0.0244,-0.4405 0.0104,-0.53235 0.24692,-0.65121 0.57149,-0.28726 1.15654,0.27876 0.89436,0.86529 -0.0942,0.21087 -0.14387,2.04266 -0.16866,6.2268 l -0.0351,5.92805 -1.60388,1.6008 -1.60387,1.6008 v 4.67733 4.67732 l 0.77603,0.70647 c 0.42682,0.38856 1.00885,0.84287 1.29339,1.0096 0.59449,0.34832 0.68561,0.45229 0.68805,0.78496 0.004,0.48978 -0.82777,0.84477 -1.1187,0.4777 z"
       id="path946" />
    <path
       style="fill:#000000;stroke:none;stroke-width:0.114967"
       d="m 194.00021,158.04117 c -0.24758,-0.37447 -2.79942,-3.04099 -5.88627,-6.15077 l -5.44923,-5.48971 h -3.50093 -3.50092 l -0.7936,-0.76616 -0.7936,-0.76615 v -2.25314 -2.25314 l -1.76834,-1.76559 -1.76834,-1.76558 -0.0526,-3.23412 c -0.0376,-2.30761 -0.095,-3.32228 -0.20071,-3.54181 -0.40945,-0.85063 0.59413,-1.49727 1.10758,-0.71365 0.1483,0.22633 0.15378,0.33098 0.0339,0.64572 -0.0961,0.25227 -0.15963,1.39495 -0.19336,3.47974 l -0.0502,3.10413 1.79097,1.78061 1.79098,1.78061 0.008,1.72591 c 0.0116,2.38764 0.0892,2.84307 0.56868,3.33776 l 0.38778,0.40008 h 3.50936 3.50936 l 4.54457,4.51832 c 5.85316,5.81934 7.14877,7.04959 7.64054,7.25507 0.49287,0.20592 0.63859,0.62588 0.36309,1.04636 -0.12927,0.19729 -0.2925,0.28658 -0.52389,0.28658 -0.28186,0 -0.40664,-0.1067 -0.77314,-0.66107 z"
       id="path944" />
    <path
       style="fill:#000000;stroke:none;stroke-width:0.114967"
       d="m 178.38696,160.18424 c -0.1897,-0.0593 -1.81937,-0.13824 -3.62149,-0.17545 l -3.27658,-0.0676 -2.09817,-2.08413 -2.09816,-2.08413 6.3e-4,-6.38188 6.2e-4,-6.38187 -0.54703,-0.47634 -0.547,-0.47632 -0.0575,-5.90438 c -0.0444,-4.56031 -0.0916,-5.96426 -0.20755,-6.1674 -0.18614,-0.32622 -0.0873,-0.66636 0.25964,-0.8937 0.21591,-0.14147 0.32054,-0.14785 0.56888,-0.0347 0.37635,0.17148 0.45924,0.47293 0.31277,1.13747 -0.0623,0.2826 -0.15025,2.97926 -0.19547,5.99257 l -0.0822,5.47874 0.59173,0.62566 0.59171,0.62565 v 6.37095 6.37095 l 1.82133,1.81866 1.82133,1.81866 3.38096,-0.038 c 2.57369,-0.0289 3.4462,-0.0751 3.65418,-0.19355 0.588,-0.33473 1.15106,0.3819 0.76409,0.97249 -0.19132,0.29199 -0.45532,0.32958 -1.0373,0.14769 z"
       id="path861" />
    <rect
       style="fill:none;stroke:#000000;stroke-width:0.0122361;stroke-opacity:1"
       id="rect833"
       width="169.03487"
       height="143.9657"
       x="46.41124"
       y="20.406832"
       rx="20.726351"
       ry="20.898249" />
    <text
       xml:space="preserve"
       id="text837"
       style="line-height:1.25;font-family:Arial;font-size:10.58333333px;-inkscape-font-specification:Arial;writing-mode:tb-rl;white-space:pre;shape-inside:url(#rect839);" />
    <text
       xml:space="preserve"
       style="font-size:19.7556px;line-height:1.25;font-family:Arial;-inkscape-font-specification:Arial;letter-spacing:0.264583px;writing-mode:lr-tb;stroke-width:0.264583"
       x="53.895485"
       y="47.916451"
       id="text845"><tspan
         sodipodi:role="line"
         id="tspan843"
         x="53.895485"
         y="47.916451"
         style="font-style:normal;font-variant:normal;font-weight:normal;font-stretch:normal;font-size:19.7556px;font-family:Consolas;-inkscape-font-specification:Consolas;writing-mode:lr-tb;stroke-width:0.264583">Árni Björnsson</tspan></text>
    <text
       xml:space="preserve"
       style="font-size:10.5833px;line-height:1.55;font-family:Arial;-inkscape-font-specification:Arial;letter-spacing:5.29167px;writing-mode:lr-tb;stroke-width:0.264583"
       x="61.452415"
       y="63.718788"
       id="text845-6"><tspan
         sodipodi:role="line"
         id="tspan843-7"
         x="61.452415"
         y="63.718788"
         style="font-style:normal;font-variant:normal;font-weight:bold;font-stretch:normal;font-size:10.5833px;font-family:Consolas;-inkscape-font-specification:Consolas;writing-mode:lr-tb;stroke-width:0.264583">Tæknifulltrúi</tspan></text>
    <text
       xml:space="preserve"
       id="text1391"
       style="line-height:1.25;font-family:Arial;font-size:10.58333333px;-inkscape-font-specification:Arial;writing-mode:tb-rl;white-space:pre;shape-inside:url(#rect1393);" />
    <path
       style="fill:#000000;stroke:none;stroke-width:0.119309"
       d="m 75.083259,80.172359 v -1.849284 h 1.670323 1.670324 v 1.849284 1.849285 h -1.670324 -1.670323 z"
       id="path1222" />
    <path
       style="fill:#000000;stroke:none;stroke-width:0.119309"
       d="m 71.38469,83.811274 v -1.78963 h 1.789631 1.78963 v 1.78963 1.789631 h -1.78963 -1.789631 z"
       id="path1220" />
    <path
       style="fill:#000000;stroke:none;stroke-width:0.119309"
       d="m 62.675155,83.870928 v -1.849284 h 1.670319 1.670324 v 1.849284 1.849284 h -1.670324 -1.670319 z"
       id="path1218" />
    <path
       style="fill:#000000;stroke:none;stroke-width:0.119309"
       d="m 75.083259,87.509843 v -1.908938 h 1.66419 1.664196 l 0.03594,1.713883 c 0.01975,0.942635 0.01858,1.801657 -0.0027,1.908938 -0.0335,0.169352 -0.257531,0.195059 -1.700148,0.195059 h -1.66158 z"
       id="path1216" />
    <path
       style="fill:#000000;stroke:none;stroke-width:0.119309"
       d="m 58.976582,87.569496 v -1.849284 h 1.789631 1.789631 v 1.849284 1.849289 h -1.789631 -1.789631 z"
       id="path1214" />
    <path
       style="fill:#000000;stroke:none;stroke-width:0.119309"
       d="m 71.38469,91.148758 v -1.729973 h 1.789631 1.78963 v 1.729973 1.729972 h -1.78963 -1.789631 z"
       id="path1212" />
    <path
       style="fill:#000000;stroke:none;stroke-width:0.119309"
       d="m 62.675155,91.208416 v -1.789631 h 1.670319 1.670324 v 1.789631 1.789634 h -1.670324 -1.670319 z"
       id="path1210" />
    <path
       style="fill:#000000;stroke:none;stroke-width:0.119309"
       d="m 58.976582,94.78768 v -1.78963 h 1.789631 1.789631 v 1.78963 1.78963 h -1.789631 -1.789631 z"
       id="path1208" />
    <path
       style="fill:#000000;stroke:none;stroke-width:0.119309"
       d="m 89.519611,106.59924 v -1.3124 h 1.133437 1.133432 v 1.3124 1.31239 h -1.133432 -1.133437 z"
       id="path1206" />
    <path
       style="fill:#000000;stroke:none;stroke-width:0.119309"
       d="m 91.9048,116.59134 c -0.0027,-0.0804 -0.0046,-8.29034 -0.0023,-8.47092 0.0027,-0.1854 0.143355,-0.20879 1.255751,-0.20879 h 1.252744 v 4.35477 4.35477 h -1.252744 c -0.689003,0 -1.253185,-0.0134 -1.253726,-0.0298 z"
       id="path1204" />
    <path
       style="fill:#000000;stroke:none;stroke-width:0.119309"
       d="m 89.519611,117.87391 v -1.25274 h 1.133437 1.133432 v 1.25274 1.25274 h -1.133432 -1.133437 z"
       id="path1202" />
    <path
       style="fill:#000000;stroke:none;stroke-width:0.119309"
       d="m 58.618656,125.50967 v -1.25274 h -1.193085 -1.193086 v -1.37205 -1.37205 h -1.248424 -1.248419 l -0.03414,-1.16326 -0.03413,-1.16327 -1.282568,-0.0339 -1.282569,-0.0339 v -9.30204 -9.30204 h 16.519431 16.519431 l 0.03463,0.9843 0.03468,0.98429 2.65462,0.0321 2.654614,0.0321 v 1.30783 1.30783 l -2.654614,0.0321 -2.65462,0.0321 v 6.97956 6.97956 l 2.65462,0.0321 2.654614,0.0321 v 1.13115 1.13115 h -5.24958 -5.249585 v 1.37205 1.37205 H 77.767734 76.51499 v 1.25274 1.25274 h -8.948153 -8.948154 z"
       id="path1198" />
    <text
       xml:space="preserve"
       style="font-size:42.3333px;line-height:1.55;font-family:Arial;-inkscape-font-specification:Arial;letter-spacing:1.32292px;writing-mode:lr-tb;stroke-width:0.265;stroke-miterlimit:4;stroke-dasharray:none"
       x="94.979721"
       y="127.62933"
       id="text845-6-0"><tspan
         sodipodi:role="line"
         id="tspan843-7-3"
         x="94.979721"
         y="127.62933"
         style="font-style:normal;font-variant:normal;font-weight:normal;font-stretch:normal;font-size:42.3333px;font-family:Consolas;-inkscape-font-specification:Consolas;writing-mode:lr-tb;stroke-width:0.265;stroke-miterlimit:4;stroke-dasharray:none">#</tspan></text>
    <text
       xml:space="preserve"
       id="text1421"
       style="line-height:1.25;font-family:Arial;font-size:10.58333333px;-inkscape-font-specification:Arial;writing-mode:tb-rl;white-space:pre;shape-inside:url(#rect1423);" />
    <text
       xml:space="preserve"
       id="text1555"
       style="line-height:1.25;font-family:Arial;font-size:10.58333333px;-inkscape-font-specification:Arial;writing-mode:tb-rl;white-space:pre;shape-inside:url(#rect1557);" />
  </g>
</svg>
